<?xml version="1.0" standalone="no"?> <!DOCTYPE svg PUBLIC "-//W3C//DTD SVG 1.0//EN" "http://www.w3.org/TR/2001/REC-SVG-20010904/DTD/svg10.dtd" > <svg xmlns="http://www.w3.org/2000/svg" width="100%" height="100%">
<defs >
<font id="freightsansregular" horiz-adv-x="380" ><font-face
    font-family="FreightSans Book"
    units-per-em="1000"
    panose-1="2 0 6 6 3 0 0 2 0 4"
    ascent="800"
    descent="-200"
    alphabetic="0" />
<missing-glyph horiz-adv-x="500" />
<glyph unicode=" " glyph-name="space" horiz-adv-x="139" />
<glyph unicode="!" glyph-name="exclam" horiz-adv-x="260" d="M93 650H168L149 186H114L93 650ZM180 39Q180 19 167 3T131 -13Q108 -13 94 3T80 39Q80 59 94 74T131 89Q153 89 166 74T180 39Z" />
<glyph unicode="&quot;" glyph-name="quotedbl" horiz-adv-x="303" d="M145 398L272 646L332 617L179 398H145ZM-3 398L124 646L184 617L30 398H-3Z" />
<glyph unicode="#" glyph-name="numbersign" horiz-adv-x="563" d="M39 370V416H177L237 642H286L225 416H397L457 642H505L445 416H535V370H432L390 212H515V166H377L313 -74H265L329 166H158L93 -74H45L110 166H19V212H122L165 370H39ZM212 370L170 212H342L384
370H212Z" />
<glyph unicode="$" glyph-name="dollar" horiz-adv-x="491" d="M226 44H236Q269 44 296 53T343 78T373 115T384 162Q384 211 352 237T258 283L226 44ZM268 637Q268 638 270 652T274 684L280 730H323L310 632Q344 626 375 614T433 584L410 528Q361 562 302 574L271
346Q304 336 335 323T391 288T430 238T445 167Q445 128 430 95T387 38T320 1T234 -13H219L204 -123H161L176 -8Q138 -3 102 11T34 45L57 102Q85 83 116 69T184 48Q184 48 185 59T189 87T194 126T201 172Q209 227 218 296Q186 306 155 318T100 350T61 398T46 468Q46
505 60 536T101 590T164 625T245 638Q251 638 256 638T268 637ZM230 358Q230 358 231 368T234 393T239 428T245 469Q252 517 260 580H245Q175 580 142 548T108 473Q108 426 140 402T230 358Z" />
<glyph unicode="%" glyph-name="percent" horiz-adv-x="743" d="M347 482Q347 449 336 419T303 367T251 331T181 317Q143 317 112 330T60 366T27 419T15 482Q15 516 26 546T59 599T112 635T181 649Q220 649 250 636T302 600T335 547T347 482ZM146 -15H91L598 639H652L146
-15ZM727 142Q727 108 716 78T683 25T630 -11T561 -25Q522 -25 492 -12T440 24T407 77T395 142Q395 175 406 205T439 257T491 293T561 307Q599 307 630 294T682 258T715 205T727 142ZM302 482Q302 534 270 570T181 606Q124 606 93 570T61 482Q61 458 69 436T92
397T130 370T181 360Q210 360 232 370T270 396T294 435T302 482ZM682 142Q682 166 674 188T650 227T612 254T561 264Q533 264 511 254T473 228T449 189T441 142Q441 90 472 54T561 18Q618 18 650 54T682 142Z" />
<glyph unicode="&amp;" glyph-name="ampersand" horiz-adv-x="624" d="M251 356Q300 377 329 408T358 484Q358 526 328 554T251 583Q200 583 172 553T143 484Q143 437 173 407T251 356ZM406 169Q361 223 315 259T224 312Q197 300 173 285T132 251T104 210T93 161Q93
137 102 116T127 78T168 52T222 42Q273 42 319 76T406 169ZM434 135Q391 69 336 28T214 -13Q171 -13 137 1T79 38T43 93T30 158Q30 191 42 218T75 268T124 306T185 333Q137 358 108 394T79 480Q79 509 91 537T127 588T183 623T256 637Q294 637 324 625T375 593T407
546T419 489Q419 437 385 399T293 337Q328 320 366 288T440 213L546 381H620L470 179L612 4L551 -14L434 135V135Z" />
<glyph unicode="&apos;" glyph-name="quotesingle" horiz-adv-x="163" d="M-3 398L124 646L184 617L30 398H-3Z" />
<glyph unicode="(" glyph-name="parenleft" horiz-adv-x="350" d="M337 -241Q295 -219 248 -178T161 -77T95 59T68 226Q68 317 94 393T160 529T247 630T337 694L366 650Q326 629 284 590T206 497T147 375T124 226Q124 147 147 79T205 -44T283 -137T366 -197L337
-241V-241Z" />
<glyph unicode=")" glyph-name="parenright" horiz-adv-x="350" d="M-16 -197Q24 -176 66 -137T144 -44T202 78T225 226Q225 306 203 374T145 497T67 590T-16 650L13 694Q55 672 102 631T189 529T255 393T282 226Q282 135 256 59T190 -76T103 -177T13 -241L-16 -197Z" />
<glyph unicode="*" glyph-name="asterisk" horiz-adv-x="339" d="M53 350L13 403L147 474V479L15 551L53 604L161 496L165 497L193 645L255 625L186 490L189 487L334 508V443L189 464L186 461L253 325L192 306L164 455L161 456L53 350Z" />
<glyph unicode="+" glyph-name="plus" horiz-adv-x="486" d="M272 207V28H217V207H41L44 262H217V440H272V262H443L446 207H272Z" />
<glyph unicode="," glyph-name="comma" horiz-adv-x="187" d="M37 46Q39 65 52 80T91 95Q118 95 140 73T162 16Q162 -35 126 -79T38 -157L11 -130Q59 -96 79 -67T99 -11Q99 9 85 21T37 46Z" />
<glyph unicode="-" glyph-name="hyphen" horiz-adv-x="292" d="M34 214V272H260V214H34Z" />
<glyph unicode="." glyph-name="period" horiz-adv-x="187" d="M144 39Q144 19 130 3T94 -13Q72 -13 58 3T44 39Q44 59 58 74T94 89Q116 89 130 74T144 39Z" />
<glyph unicode="/" glyph-name="slash" horiz-adv-x="207" d="M-3 -199H-52L191 702H241L-3 -199Z" />
<glyph unicode="0" glyph-name="zero" horiz-adv-x="578" d="M530 236Q530 181 512 136T461 57T384 6T288 -13Q237 -13 193 5T117 57T66 135T48 236Q48 291 66 336T116 415T193 466T288 485Q340 485 384 467T460 415T511 337T530 236ZM468 236Q468 277 455 311T418
371T361 411T288 426Q249 426 216 412T160 372T123 312T110 236Q110 196 123 161T159 101T216 61T288 46Q328 46 361 60T418 100T455 161T468 236Z" />
<glyph unicode="1" glyph-name="one" horiz-adv-x="326" d="M162 406L46 362L43 419L223 485V0H162V406Z" />
<glyph unicode="2" glyph-name="two" horiz-adv-x="440" d="M47 0V57Q109 104 159 141T244 211T298 273T317 333Q317 373 289 400T212 427Q174 427 139 411T70 369L48 422Q83 450 125 467T218 485Q254 485 284 475T336 445T370 400T382 341Q382 300 363 265T309
197T231 131T135 59H405V0H47Z" />
<glyph unicode="3" glyph-name="three" horiz-adv-x="419" d="M239 167Q277 164 306 150T356 115T388 66T399 8Q399 -36 382 -72T335 -133T266 -171T181 -185Q137 -185 93 -175T20 -146L36 -89Q62 -105 100 -116T183 -128Q249 -128 291 -94T334 3Q334 60 295 90T194
123Q151 123 103 114V165Q148 176 186 191T251 225T294 269T310 323Q310 374 278 400T190 427Q150 427 112 410T42 367L19 419Q53 446 99 465T196 485Q280 485 328 442T376 331Q376 302 365 277T336 231T292 194T239 167Z" />
<glyph unicode="4" glyph-name="four" horiz-adv-x="501" d="M390 15V-184H330V15H23L15 58L336 488H390V74H485L488 15H390ZM330 389L95 74H330V389Z" />
<glyph unicode="5" glyph-name="five" horiz-adv-x="419" d="M105 208Q122 213 141 215T189 218Q236 218 274 204T340 165T382 105T397 28Q397 -19 380 -58T334 -126T265 -169T179 -185Q136 -185 93 -173T19 -144L31 -83Q61 -100 100 -113T181 -126Q214 -126 242
-116T290 -85T322 -38T334 25Q334 54 324 79T294 123T246 153T183 164Q161 164 145 163T116 159T90 154T64 145L43 165L83 473H380L383 413H134L105 208V208Z" />
<glyph unicode="6" glyph-name="six" horiz-adv-x="503" d="M44 238Q44 300 65 362T129 479T237 575T392 638L410 580Q284 550 209 478T111 310L113 309Q146 340 187 359T281 379Q317 379 349 367T407 331T447 273T462 193Q462 149 448 111T407 46T342 3T257 -13Q206
-13 167 7T100 61T58 140T44 238ZM109 225Q109 189 119 156T148 99T195 59T259 44Q324 44 361 85T399 190Q399 222 389 246T362 288T320 315T269 324Q223 324 183 306T112 258Q109 243 109 225Z" />
<glyph unicode="7" glyph-name="seven" horiz-adv-x="439" d="M18 412L21 473H416V423L133 -184H70L349 412H18Z" />
<glyph unicode="8" glyph-name="eight" horiz-adv-x="490" d="M271 333Q313 350 342 381T372 458Q372 484 363 506T337 544T297 568T247 577Q216 577 192 568T152 544T127 508T118 466Q118 440 131 421T165 386T214 358T271 333ZM225 292Q201 284 180 272T143
243T118 206T108 161Q108 107 144 75T247 42Q316 42 349 72T382 152Q382 181 369 201T333 238T283 266T225 292ZM318 311Q344 299 367 285T407 253T434 213T445 161Q445 127 433 96T395 40T333 2T245 -13Q194 -13 156 0T94 36T57 89T45 153Q45 186 58 213T90 260T133
293T177 313Q152 324 130 337T92 368T65 408T55 459Q55 497 69 528T108 583T170 618T249 631Q292 631 326 619T385 584T422 532T435 466Q435 436 424 412T396 368T359 334T318 311Z" />
<glyph unicode="9" glyph-name="nine" horiz-adv-x="503" d="M459 234Q459 172 438 110T374 -7T266 -103T111 -166L93 -108Q219 -78 294 -6T392 162L390 163Q357 132 316 113T222 93Q186 93 154 105T96 141T56 199T41 279Q41 323 55 361T97 426T162 469T247 485Q298
485 337 465T404 411T445 332T459 234ZM394 247Q394 284 384 317T355 374T308 413T244 428Q179 428 142 387T104 282Q104 251 114 226T142 184T183 157T234 148Q281 148 320 166T391 214Q394 229 394 247Z" />
<glyph unicode=":" glyph-name="colon" horiz-adv-x="187" d="M144 358Q144 337 130 322T94 306Q72 306 58 321T44 358Q44 378 58 392T94 407Q116 407 130 393T144 358ZM144 39Q144 19 130 3T94 -13Q72 -13 58 3T44 39Q44 59 58 74T94 89Q116 89 130 74T144 39Z" />
<glyph unicode=";" glyph-name="semicolon" horiz-adv-x="187" d="M144 358Q144 337 130 322T94 306Q72 306 58 321T44 358Q44 378 58 392T94 407Q116 407 130 393T144 358ZM37 46Q39 65 52 80T91 95Q118 95 140 73T162 16Q162 -35 126 -79T38 -157L11 -130Q59
-96 79 -67T99 -11Q99 9 85 21T37 46Z" />
<glyph unicode="&lt;" glyph-name="less" horiz-adv-x="456" d="M416 18L34 208V262L415 453V392L104 240V230L416 78V18Z" />
<glyph unicode="=" glyph-name="equal" horiz-adv-x="446" d="M39 295L35 350H413L409 295H39ZM35 119L39 174H409L413 119H35Z" />
<glyph unicode="&gt;" glyph-name="greater" horiz-adv-x="456" d="M38 18V78L350 230V240L39 392V453L420 262V208L38 18Z" />
<glyph unicode="?" glyph-name="question" horiz-adv-x="349" d="M309 476Q309 445 300 423T276 386T243 361T204 342Q168 326 147 313T126 274Q126 251 143 230T186 189L153 178Q124 195 100 222T76 282Q76 304 83 320T104 349T135 370T173 388Q191 395 206 402T233
420T251 443T258 475Q258 496 249 515T223 549T180 573T121 582Q101 582 84 579T52 573V630Q66 634 83 636T124 639Q167 639 201 625T260 588T296 536T309 476ZM198 39Q198 19 184 3T148 -13Q125 -13 111 3T97 39Q97 59 111 74T148 89Q170 89 184 74T198 39Z" />
<glyph unicode="@" glyph-name="at" horiz-adv-x="831" d="M543 207Q532 152 549 122T611 92Q638 92 664 106T710 147T742 214T754 306Q754 374 727 428T654 521T550 581T428 602Q355 602 292 573T182 495T108 380T81 243Q81 174 104 114T170 8T270 -63T399 -89Q430
-89 462 -83T522 -69L531 -102Q464 -123 397 -123Q320 -123 255 -95T143 -18T70 98T43 242Q43 323 73 394T154 519T276 604T428 635Q501 635 567 612T683 547T762 443T792 306Q792 243 776 195T734 115T674 65T604 48Q562 48 533 69T491 122Q461 86 431 71T369
56Q337 56 311 68T266 103T237 156T226 220Q226 267 242 309T287 382T354 432T435 451Q464 451 489 442T534 421L592 447L543 207V207ZM523 365Q507 382 483 394T429 406Q398 406 371 391T325 350T294 292T282 224Q282 171 310 137T384 103Q435 103 480 154L523
365Z" />
<glyph unicode="A" glyph-name="A" horiz-adv-x="575" d="M560 0H495L429 179H146L80 0H15L252 625H327L560 0ZM288 562L168 237H407L288 562Z" />
<glyph unicode="B" glyph-name="B" horiz-adv-x="550" d="M368 320Q437 306 472 268T508 174Q508 136 495 104T455 49T385 13T283 0H80V625H275Q331 625 371 613T438 579T476 528T488 462Q488 416 460 376T368 320ZM424 457Q424 508 389 537T278 567H144V342H268Q339
342 381 371T424 457ZM444 174Q444 229 400 256T272 284H144V58H288Q371 58 407 89T444 174Z" />
<glyph unicode="C" glyph-name="C" horiz-adv-x="586" d="M522 530Q484 554 441 567T348 580Q297 580 254 562T180 510T130 427T112 313Q112 251 129 202T177 117T252 64T350 45Q401 45 447 61T525 101L537 38Q502 15 453 1T349 -13Q281 -13 226 10T130 75T69
177T47 311Q47 386 69 446T132 549T228 615T349 638Q406 638 456 623T542 587L522 530Z" />
<glyph unicode="D" glyph-name="D" horiz-adv-x="628" d="M581 317Q581 243 559 185T493 85T388 22T245 0H80V625H250Q327 625 388 603T492 541T558 443T581 317ZM517 312Q517 432 446 499T246 566H144V59H248Q308 59 357 74T442 121T497 200T517 312Z" />
<glyph unicode="E" glyph-name="E" horiz-adv-x="507" d="M80 0V625H458V566H144V342H406V284H144V59H458V0H80Z" />
<glyph unicode="F" glyph-name="F" horiz-adv-x="479" d="M80 625H448V565H144V332H396V273H144V0H80V625Z" />
<glyph unicode="G" glyph-name="G" horiz-adv-x="625" d="M562 49Q516 18 460 3T349 -13Q281 -13 226 10T130 75T69 177T47 311Q47 386 69 446T132 549T228 615T349 638Q407 638 459 623T547 586L526 528Q491 551 444 565T348 580Q297 580 254 562T180 510T130
427T112 313Q112 251 129 202T177 117T252 64T350 45Q395 45 432 55T500 83V253H319V311H562V49V49Z" />
<glyph unicode="H" glyph-name="H" horiz-adv-x="654" d="M510 0V285H144V0H80V625H144V343H510V625H574V0H510Z" />
<glyph unicode="I" glyph-name="I" horiz-adv-x="228" d="M82 0V625H145V0H82Z" />
<glyph unicode="J" glyph-name="J" horiz-adv-x="414" d="M341 192Q341 146 330 108T296 43T238 2T153 -13Q111 -13 75 -1T14 26L25 88Q55 69 87 57T154 45Q278 45 278 194V625H341V192V192Z" />
<glyph unicode="K" glyph-name="K" horiz-adv-x="537" d="M145 325L434 625H516L207 315L521 0H438L145 299H144V0H80V625H144V325H145Z" />
<glyph unicode="L" glyph-name="L" horiz-adv-x="478" d="M80 0V625H144V60H453V0H80Z" />
<glyph unicode="M" glyph-name="M" horiz-adv-x="761" d="M621 546L416 4H346L139 547L128 0H65L86 625H172L383 73L591 625H676L696 0H631L621 546Z" />
<glyph unicode="N" glyph-name="N" horiz-adv-x="650" d="M507 625H569V-6H500L142 535V0H80V625H152L507 89V625Z" />
<glyph unicode="O" glyph-name="O" horiz-adv-x="709" d="M662 315Q662 243 639 183T575 80T478 12T354 -13Q289 -13 233 10T136 76T71 179T47 311Q47 383 70 443T134 546T231 614T355 638Q420 638 476 615T574 549T638 447T662 315ZM597 311Q597 371 579 421T529
506T451 561T353 581Q301 581 257 562T180 507T130 423T112 315Q112 255 130 205T181 119T259 64T357 44Q409 44 453 63T529 118T579 203T597 311Z" />
<glyph unicode="P" glyph-name="P" horiz-adv-x="519" d="M481 430Q481 327 414 275T229 221L144 220V0H80V625H237Q299 625 345 611T421 571T466 509T481 430ZM415 427Q415 494 369 530T235 566H144V279L233 281Q322 283 368 318T415 427Z" />
<glyph unicode="Q" glyph-name="Q" horiz-adv-x="709" d="M681 -91L653 -146L397 -9Q386 -11 376 -12T354 -13Q289 -13 233 10T136 76T71 179T47 311Q47 383 70 443T134 546T231 614T355 638Q420 638 476 615T574 549T638 447T662 315Q662 261 649 214T611 128T553
60T476 13L681 -91ZM597 311Q597 371 579 421T529 506T451 561T353 581Q301 581 257 562T180 507T130 423T112 315Q112 255 130 205T181 119T259 64T357 44Q409 44 453 63T529 118T579 203T597 311Z" />
<glyph unicode="R" glyph-name="R" horiz-adv-x="529" d="M144 0H80V625H248Q364 625 419 576T475 445Q475 410 464 382T433 331T387 294T330 269L503 0H429L269 258L144 250V0ZM256 311Q287 312 315 321T364 346T398 387T411 442Q411 504 367 535T241 567H144V307L256
311Z" />
<glyph unicode="S" glyph-name="S" horiz-adv-x="490" d="M239 44Q272 44 299 53T345 78T376 115T387 162Q387 189 376 209T345 244T295 270T229 293Q196 303 164 316T105 349T63 397T47 468Q47 505 62 536T103 590T167 625T247 638Q301 638 348 624T435 584L412
528Q377 552 334 566T248 580Q213 580 187 572T144 548T118 514T109 473Q109 447 120 429T152 396T202 371T267 348Q301 338 333 325T391 290T432 239T448 167Q448 128 433 95T390 38T323 1T237 -13Q180 -13 130 2T36 45L59 102Q97 76 141 60T239 44Z" />
<glyph unicode="T" glyph-name="T" horiz-adv-x="550" d="M307 565V0H243V565H23V625H527V565H307Z" />
<glyph unicode="U" glyph-name="U" horiz-adv-x="616" d="M544 239Q544 181 529 135T484 55T410 5T307 -13Q251 -13 208 4T134 52T89 129T73 229V625H135V237Q135 147 178 97T310 46Q394 46 437 95T481 238V625H544V239V239Z" />
<glyph unicode="V" glyph-name="V" horiz-adv-x="555" d="M314 0H239L10 625H75L278 66L480 625H545L314 0Z" />
<glyph unicode="W" glyph-name="W" horiz-adv-x="895" d="M280 0H219L41 625H107L253 91L412 625H488L650 91L790 625H854L679 0H617L449 550L280 0Z" />
<glyph unicode="X" glyph-name="X" horiz-adv-x="562" d="M88 0H13L242 318L25 625H101L281 364L462 625H537L318 321L548 0H470L279 277L88 0Z" />
<glyph unicode="Y" glyph-name="Y" horiz-adv-x="524" d="M294 251V0H230V251L12 625H84L264 314L441 625H512L294 251Z" />
<glyph unicode="Z" glyph-name="Z" horiz-adv-x="510" d="M24 0V47L395 567H35V625H475V577L104 58H474V0H24Z" />
<glyph unicode="[" glyph-name="bracketleft" horiz-adv-x="387" d="M98 -222V675H358V624H155V-171H358V-222H98Z" />
<glyph unicode="\" glyph-name="backslash" horiz-adv-x="207" d="M17 702L260 -199H211L-33 702H17Z" />
<glyph unicode="]" glyph-name="bracketright" horiz-adv-x="387" d="M30 -171H233V624H30V675H289V-222H30V-171Z" />
<glyph unicode="^" glyph-name="asciicircum" horiz-adv-x="377" d="M301 518L201 653H200L99 518H52L165 700H235L348 518H301Z" />
<glyph unicode="_" glyph-name="underscore" horiz-adv-x="445" d="M-11 -49V0H456V-49H-11Z" />
<glyph unicode="`" glyph-name="grave" horiz-adv-x="396" d="M223 518L71 697H151L269 518H223Z" />
<glyph unicode="a" glyph-name="a" horiz-adv-x="439" d="M311 235Q252 228 212 218T146 194T109 162T98 121Q98 84 124 63T192 41Q229 41 259 59T311 101V235ZM312 55Q289 26 254 7T178 -13Q147 -13 120 -4T74 23T44 63T33 114Q33 145 46 172T92 222T177 258T311
277V304Q311 358 286 385T203 413Q184 413 164 409T124 397T86 379T53 358L39 416Q54 427 74 437T116 454T163 466T209 471Q289 471 331 433T373 307V87Q373 62 381 51T419 41L415 -10Q370 -13 345 4T315 55H312Z" />
<glyph unicode="b" glyph-name="b" horiz-adv-x="511" d="M472 235Q472 181 456 136T409 57T338 6T246 -13Q218 -13 188 -6T134 12L72 -15V674L134 687V410Q157 432 192 450T272 468Q317 468 354 451T417 403T458 329T472 235ZM408 232Q408 271 398 304T368 360T322
397T260 411Q222 411 191 397T134 360V79Q155 62 185 53T249 43Q286 43 315 57T365 96T397 156T408 232Z" />
<glyph unicode="c" glyph-name="c" horiz-adv-x="451" d="M408 26Q379 8 343 -2T266 -13Q214 -13 173 4T102 54T58 130T42 228Q42 282 59 326T106 403T177 453T267 471Q309 471 345 461T410 432L394 376Q368 393 336 403T267 413Q230 413 200 400T149 362T117
305T106 230Q106 188 117 154T150 96T202 58T268 45Q303 45 336 55T395 83L408 26V26Z" />
<glyph unicode="d" glyph-name="d" horiz-adv-x="514" d="M380 674L442 687V0H380V43Q357 22 324 5T247 -13Q201 -13 163 4T98 53T57 129T42 225Q42 278 59 323T106 400T178 450T269 468Q298 468 327 461T380 443V674ZM380 377Q359 394 329 403T266 412Q229 412
200 398T149 360T117 301T106 226Q106 186 116 153T147 95T195 58T258 44Q293 44 324 58T380 95V377V377Z" />
<glyph unicode="e" glyph-name="e" horiz-adv-x="470" d="M105 222Q106 183 117 151T150 95T200 58T265 45Q303 45 337 55T398 83L410 26Q381 8 344 -2T263 -13Q214 -13 173 4T103 53T58 129T42 225Q42 279 58 324T103 402T172 453T258 471Q334 471 379 426T425
302Q425 284 423 264T415 229L105 227V222ZM363 277Q364 281 364 287T364 297Q364 350 336 382T254 415Q223 415 198 404T155 374T125 330T109 276L363 277Z" />
<glyph unicode="f" glyph-name="f" horiz-adv-x="298" d="M307 676Q307 676 305 667T300 648T295 629T292 620Q276 628 259 633T222 639Q184 639 165 614T146 532V456H290L287 401H146V0H85V399L11 404L15 443L84 459L85 531Q86 576 96 607T125 658T168 687T223
696Q246 696 268 690T307 676Z" />
<glyph unicode="g" glyph-name="g" horiz-adv-x="468" d="M107 298Q107 248 138 215T225 181Q278 181 308 214T339 301Q339 352 310 386T222 420Q168 420 138 386T107 298ZM161 -13Q119 -24 94 -49T68 -103Q68 -144 109 -170T224 -197Q260 -197 291 -189T345 -167T382
-132T396 -89Q396 -48 361 -32T257 -16Q234 -16 208 -16T161 -13ZM107 -1Q78 10 62 28T45 72Q45 101 66 124T120 159Q87 179 67 215T46 299Q46 335 59 366T95 421T152 458T226 471Q262 471 288 463T334 444L461 454L464 392L363 402Q380 385 390 356T400 299Q400
263 387 232T349 179T293 144T222 131Q203 131 187 134T154 144Q136 136 120 123T103 89Q103 67 124 55T207 42H266Q366 42 411 11T456 -78Q456 -116 437 -147T384 -200T307 -235T215 -248Q169 -248 131 -239T66 -211T23 -169T8 -114Q8 -75 35 -44T107 -1Z" />
<glyph unicode="h" glyph-name="h" horiz-adv-x="505" d="M374 0V296Q374 356 350 384T276 412Q236 412 200 394T134 347V0H72V674L134 687V398Q170 434 212 452T293 471Q360 471 398 430T436 314V0H374Z" />
<glyph unicode="i" glyph-name="i" horiz-adv-x="209" d="M146 609Q146 591 136 577T104 563Q83 563 73 577T62 609Q62 626 72 639T104 653Q125 653 135 640T146 609ZM73 0V458L135 471V0H73Z" />
<glyph unicode="j" glyph-name="j" horiz-adv-x="207" d="M146 609Q146 591 136 577T104 563Q83 563 73 577T62 609Q62 626 72 639T104 653Q125 653 135 640T146 609ZM-15 -206Q10 -193 26 -178T53 -143T68 -96T73 -32V458L135 471V-32Q135 -76 129 -110T110 -169T77
-214T27 -250L-15 -206Z" />
<glyph unicode="k" glyph-name="k" horiz-adv-x="434" d="M134 228V0H72V674L134 687V247H136L342 458H420L200 240L421 0H342L136 228H134Z" />
<glyph unicode="l" glyph-name="l" horiz-adv-x="206" d="M72 0V674L134 687V0H72Z" />
<glyph unicode="m" glyph-name="m" horiz-adv-x="775" d="M644 0V295Q644 355 621 383T547 412Q510 412 477 395T418 353Q419 348 419 334T420 312V0H358V295Q358 355 335 383T261 412Q225 412 193 397T134 359V0H72V458L134 471V408Q169 440 206 455T279 471Q322
471 354 452T403 395Q441 433 483 452T565 471Q631 471 668 430T706 313V0H644Z" />
<glyph unicode="n" glyph-name="n" horiz-adv-x="505" d="M374 0V296Q374 356 350 384T273 412Q235 412 199 394T134 347V0H72V458L134 471V396Q170 432 212 451T290 471Q359 471 397 430T436 314V0H374Z" />
<glyph unicode="o" glyph-name="o" horiz-adv-x="531" d="M488 230Q488 175 471 131T423 54T352 5T263 -13Q215 -13 175 4T105 52T59 128T42 228Q42 283 59 327T107 404T178 453T268 471Q316 471 356 454T426 406T471 330T488 230ZM427 228Q427 270 416 304T383
363T331 401T265 415Q229 415 199 402T148 363T116 305T104 230Q104 188 115 154T148 95T200 57T266 43Q302 43 332 56T383 95T415 154T427 228Z" />
<glyph unicode="p" glyph-name="p" horiz-adv-x="515" d="M134 412Q157 434 191 451T267 468Q314 468 351 451T416 402T457 327T472 231Q472 178 456 133T409 56T338 5T246 -13Q219 -13 188 -7T134 11V-233H72V460L134 473V412V412ZM134 79Q155 62 185 53T249
43Q286 43 315 57T365 96T397 155T408 230Q408 270 398 303T368 360T320 397T257 411Q222 411 191 397T134 360V79Z" />
<glyph unicode="q" glyph-name="q" horiz-adv-x="514" d="M380 -233V43Q357 22 324 5T247 -13Q201 -13 163 4T98 53T57 129T42 225Q42 278 59 323T106 400T178 450T269 468Q303 468 335 461T390 442L442 471V-233H380ZM380 377Q359 394 329 403T266 413Q229 413
200 399T149 360T117 301T106 226Q106 186 116 153T147 95T195 57T258 43Q293 43 324 57T380 95V377V377Z" />
<glyph unicode="r" glyph-name="r" horiz-adv-x="356" d="M134 0H72V458L134 471V373Q157 418 190 444T269 471Q292 471 312 465T349 450L333 392Q318 401 301 406T263 412Q227 412 194 384T134 294V0Z" />
<glyph unicode="s" glyph-name="s" horiz-adv-x="387" d="M347 125Q347 94 335 69T300 25T248 -3T183 -13Q142 -13 102 -2T33 28L50 85Q79 65 114 54T185 43Q206 43 224 48T257 63T279 87T288 120Q288 141 278 155T252 178T215 195T173 209Q149 216 126 226T83
251T52 287T40 339Q40 370 52 394T85 436T134 462T195 471Q233 471 269 462T334 437L316 381Q287 397 254 406T191 415Q149 415 124 397T99 345Q99 326 108 313T133 290T169 273T212 259Q236 252 260 242T304 217T335 179T347 125Z" />
<glyph unicode="t" glyph-name="t" horiz-adv-x="329" d="M300 9Q276 -2 250 -8T198 -15Q132 -15 103 21T75 129L82 400L12 404L15 443L84 459L87 563H146L143 456H296L293 401H141L134 127Q131 41 201 41Q224 41 246 47T289 63L300 9V9Z" />
<glyph unicode="u" glyph-name="u" horiz-adv-x="504" d="M130 458V162Q130 102 154 74T229 46Q269 46 305 64T370 111V458H432V0L370 -13V61Q335 25 293 6T212 -13Q145 -13 107 28T68 144V458H130Z" />
<glyph unicode="v" glyph-name="v" horiz-adv-x="424" d="M240 -1H184L3 458H70L215 80L355 458H420L240 -1Z" />
<glyph unicode="w" glyph-name="w" horiz-adv-x="662" d="M155 -2L15 458H81L187 93L306 457H362L487 91L582 458H650L514 -2H459L334 368L209 -2H155Z" />
<glyph unicode="x" glyph-name="x" horiz-adv-x="394" d="M321 0L197 193L74 0H4L162 235L14 458H83L197 280L309 458H378L232 237L390 0H321Z" />
<glyph unicode="y" glyph-name="y" horiz-adv-x="424" d="M242 5L205 -94Q189 -136 173 -164T139 -208T101 -231T57 -238Q31 -238 10 -232T-32 -217L-13 -160Q4 -169 21 -174T57 -180Q70 -180 82 -176T105 -160T127 -128T151 -74L182 7L3 458H70L214 80L355 458H420L242
5Z" />
<glyph unicode="z" glyph-name="z" horiz-adv-x="392" d="M21 0V49L294 403H30V458H368V410L95 55H368V0H21Z" />
<glyph unicode="{" glyph-name="braceleft" horiz-adv-x="332" d="M316 -229Q212 -224 156 -196T99 -102Q99 -71 107 -44T124 9T141 59T149 107Q149 153 120 172T22 198L19 231L22 265Q91 270 120 289T149 356Q149 380 141 404T124 453T107 506T99 564Q99 629
155 658T316 692V646Q228 639 193 621T157 569Q157 545 165 520T182 470T200 418T208 366Q208 314 175 277T70 234V228Q142 223 175 186T208 95Q208 70 200 44T183 -7T165 -57T157 -104Q157 -140 192 -158T316 -184V-229V-229Z" />
<glyph unicode="|" glyph-name="bar" horiz-adv-x="247" d="M96 702H151V-199H96V702Z" />
<glyph unicode="}" glyph-name="braceright" horiz-adv-x="332" d="M310 197Q241 192 212 173T182 106Q182 82 190 58T207 9T225 -44T233 -102Q233 -167 177 -196T16 -229V-184Q103 -178 139 -160T175 -106Q175 -83 167 -58T150 -8T132 44T124 95Q124 147 157
185T262 228V234Q190 238 157 275T124 366Q124 392 132 418T149 469T167 520T175 568Q175 603 139 621T16 646V692Q120 686 176 658T233 564Q233 533 225 506T208 453T190 403T182 355Q182 308 211 289T310 264L313 231L310 197Z" />
<glyph unicode="~" glyph-name="asciitilde" horiz-adv-x="377" d="M362 292Q354 233 333 205T273 177Q251 177 230 188T190 212T154 237T123 248Q108 248 98 235T78 183H37Q45 242 66 270T126 298Q148 298 169 287T209 263T246 238T277 226Q291 226 301 239T321
292H362V292Z" />
</font>
</defs>
</svg>
